# xmcd CD database file
#
# Track frame offsets:
#	187
#	16627
#	42860
#
# Disc length: 786 seconds
#
# Revision: 0
# Processed by: cddbd v1.5.1PL0 Copyright (c) Steve Scherf et al.
# Submitted via: CDex 1.51
#
DISCID=14031003
DTITLE=chez vous - きっといつか
DYEAR=1998
DGENRE=J-POP
TTITLE0=きっといつか
TTITLE1=シュビィ ドゥ ビイ ワぁー
TTITLE2=きっといつか　〜instrumental〜
EXTD=YEAR: 1998
EXTT0=
EXTT1=
EXTT2=
PLAYORDER=
